<svg xmlns="http://www.w3.org/2000/svg" xmlns:xlink="http://www.w3.org/1999/xlink" version="1.1" x="0px" y="0px" viewBox="0 0 100 125" style="enable-background:new 0 0 100 100;" xml:space="preserve">
    <path fill="#939393" d="M50,25c-13.785,0-25,11.215-25,25s11.215,25,25,25s25-11.215,25-25S63.785,25,50,25z M29,50c0-11.58,9.42-21,21-21  c5.071,0,9.728,1.807,13.361,4.811L56.172,41H55v-1c0-0.552-0.448-1-1-1h-8c-0.552,0-1,0.448-1,1v1h-6c-1.105,0-2,0.895-2,2v14  c0,0.859,0.544,1.585,1.304,1.868l-4.493,4.493C30.807,59.728,29,55.071,29,50z M57,50c0,3.86-3.14,7-7,7  c-1.204,0-2.338-0.306-3.328-0.843l1.511-1.511C48.747,54.868,49.357,55,50,55c2.757,0,5-2.243,5-5c0-0.643-0.132-1.253-0.354-1.818  l1.511-1.511C56.694,47.662,57,48.796,57,50z M43,50c0-3.86,3.14-7,7-7c1.204,0,2.338,0.306,3.328,0.843l-1.511,1.511  C51.253,45.132,50.643,45,50,45c-2.757,0-5,2.243-5,5c0,0.643,0.132,1.253,0.354,1.818l-1.511,1.511C43.306,52.338,43,51.204,43,50z   M50,71c-5.071,0-9.728-1.807-13.361-4.811L43.828,59H61c1.105,0,2-0.895,2-2V43c0-0.859-0.544-1.585-1.304-1.868l4.493-4.493  C69.193,40.272,71,44.929,71,50C71,61.58,61.58,71,50,71z M42,40h-3v-1h3V40z"/>
</svg>
